<svg width="1280" height="720" xmlns="http://www.w3.org/2000/svg" xmlns:xlink="http://www.w3.org/1999/xlink" overflow="hidden"><defs><clipPath id="clip0"><rect x="0" y="0" width="1280" height="720"/></clipPath></defs><g clip-path="url(#clip0)"><rect x="0" y="0" width="1280" height="720" fill="#FFFFFF"/><rect x="0.500053" y="0.500053" width="1280" height="720" stroke="#172C51" stroke-width="1.33333" stroke-miterlimit="8" fill="#2F5597"/><path d="M0.500053 0.500053 348.958 0.500053 363.933 9.50986C411.766 41.2049 440.5 81.8386 440.5 126.142 440.5 227.408 290.379 309.5 105.195 309.5 70.4726 309.5 36.9831 306.614 5.48502 301.257L0.500053 300.259Z" stroke="#172C51" stroke-width="1.33333" stroke-miterlimit="8" fill="#203864" fill-rule="evenodd"/><path d="M1280.5 720.5 676.242 720.5 650.275 700.323C567.328 629.342 517.5 538.344 517.5 439.126 517.5 212.344 777.824 28.5001 1098.95 28.5001 1159.16 28.5001 1217.24 34.9633 1271.86 46.961L1280.5 49.1953Z" stroke="#172C51" stroke-width="1.33333" stroke-miterlimit="8" fill="#203864" fill-rule="evenodd"/><path d="M11.5001 133.169C11.5001 70.3916 62.3916 19.5001 125.169 19.5001L1146.83 19.5001C1209.61 19.5001 1260.5 70.3916 1260.5 133.169L1260.5 587.831C1260.5 650.609 1209.61 701.5 1146.83 701.5L125.169 701.5C62.3916 701.5 11.5001 650.609 11.5001 587.831Z" stroke="#172C51" stroke-width="1.33333" stroke-miterlimit="8" fill="#B4C7E7" fill-rule="evenodd"/><path d="M32.5001 150.335C32.5001 91.8839 79.8839 44.5001 138.335 44.5001L1129.67 44.5001C1188.12 44.5001 1235.5 91.8839 1235.5 150.335L1235.5 573.665C1235.5 632.116 1188.12 679.5 1129.67 679.5L138.335 679.5C79.8839 679.5 32.5001 632.116 32.5001 573.665Z" stroke="#172C51" stroke-width="1.33333" stroke-miterlimit="8" fill="#8FAADC" fill-rule="evenodd"/><path d="M287 149.835C287 91.384 334.384 44 392.835 44L1129.16 44C1187.62 44 1235 91.384 1235 149.835L1235 573.165C1235 631.616 1187.62 679 1129.16 679L392.835 679C334.384 679 287 631.616 287 573.165Z" fill="#203864" fill-rule="evenodd"/></g></svg>